# Blender 4.5.3 LTS
# www.blender.org
o Bat
v -0.000000 -0.075381 0.377931
v -0.028847 -0.069643 0.377931
v -0.069643 -0.028847 0.377931
v -0.075381 0.000000 0.377931
v -0.069643 0.028847 0.377931
v -0.028847 0.069643 0.377931
v -0.000000 0.075381 0.377931
v 0.028847 0.069643 0.377931
v 0.069643 0.028847 0.377931
v 0.075381 0.000000 0.377931
v 0.069643 -0.028847 0.377931
v 0.028847 -0.069643 0.377931
v 0.000000 -0.081970 -0.375000
v -0.031369 -0.075731 -0.375000
v -0.075731 -0.031369 -0.375000
v -0.081970 0.000000 -0.375000
v -0.075731 0.031369 -0.375000
v -0.031369 0.075731 -0.375000
v 0.000000 0.081970 -0.375000
v 0.031369 0.075731 -0.375000
v 0.075731 0.031369 -0.375000
v 0.081970 0.000000 -0.375000
v 0.075731 -0.031369 -0.375000
v 0.031369 -0.075731 -0.375000
v 0.016238 0.039203 0.306497
v -0.039203 -0.016238 0.306497
v 0.039203 0.016238 0.306497
v -0.042433 0.000000 0.306497
v 0.042433 0.000000 0.306497
v -0.039203 0.016238 0.306497
v 0.039203 -0.016238 0.306497
v -0.016238 0.039203 0.306497
v 0.016238 -0.039203 0.306497
v 0.000000 0.042433 0.306497
v 0.000000 -0.042433 0.306497
v -0.016238 -0.039203 0.306497
v -0.086950 -0.036016 -0.037500
v 0.086950 0.036016 -0.037500
v -0.094113 -0.000000 -0.037500
v 0.094113 -0.000000 -0.037500
v -0.086950 0.036016 -0.037500
v 0.086950 -0.036016 -0.037500
v -0.036016 0.086950 -0.037500
v 0.036016 -0.086950 -0.037500
v 0.000000 0.094113 -0.037500
v -0.036016 -0.086950 -0.037500
v 0.036016 0.086950 -0.037500
v 0.000000 -0.094113 -0.037500
v -0.110980 -0.045969 -0.341250
v 0.110980 0.045969 -0.341250
v -0.120124 -0.000000 -0.341250
v 0.120124 -0.000000 -0.341250
v -0.110980 0.045969 -0.341250
v 0.110980 -0.045969 -0.341250
v -0.045969 0.110980 -0.341250
v 0.045969 -0.110980 -0.341250
v 0.000000 0.120124 -0.341250
v -0.045969 -0.110980 -0.341250
v 0.045969 0.110980 -0.341250
v 0.000000 -0.120124 -0.341250
v 0.033728 0.081427 0.345819
v 0.000000 -0.088136 0.345819
v -0.081427 -0.033728 0.345819
v 0.081427 0.033728 0.345819
v -0.088136 0.000000 0.345819
v 0.088136 0.000000 0.345819
v -0.081427 0.033728 0.345819
v 0.081427 -0.033728 0.345819
v -0.033728 0.081427 0.345819
v 0.033728 -0.081427 0.345819
v 0.000000 0.088136 0.345819
v -0.033728 -0.081427 0.345819
v 0.019604 0.047328 0.074753
v 0.000000 -0.051227 0.074753
v -0.047328 -0.019604 0.074753
v 0.047328 0.019604 0.074753
v -0.051227 0.000000 0.074753
v 0.051227 0.000000 0.074753
v -0.047328 0.019604 0.074753
v 0.047328 -0.019604 0.074753
v -0.019604 0.047328 0.074753
v 0.019604 -0.047328 0.074753
v 0.000000 0.051227 0.074753
v -0.019604 -0.047328 0.074753
v -0.000000 -0.000879 0.375000
v 0.000000 0.000720 -0.375000
v -0.102405 -0.042418 -0.358125
v 0.102405 0.042418 -0.358125
v -0.110843 0.000000 -0.358125
v 0.110843 0.000000 -0.358125
v -0.102405 0.042418 -0.358125
v 0.102405 -0.042418 -0.358125
v -0.042418 0.102405 -0.358125
v 0.042418 -0.102405 -0.358125
v 0.000000 0.110843 -0.358125
v -0.042418 -0.102405 -0.358125
v 0.042418 0.102405 -0.358125
v 0.000000 -0.110843 -0.358125
vn -0.6638 -0.6638 0.3445
vn -0.4819 -0.4819 -0.7318
vn -0.5021 -0.0999 -0.8590
vn 0.5021 0.0999 -0.8590
vn -0.5021 0.0999 -0.8590
vn 0.5021 -0.0999 -0.8590
vn 0.3780 -0.3780 -0.8451
vn 0.4819 0.4819 -0.7318
vn -0.0999 0.5021 -0.8590
vn -0.0999 -0.5021 -0.8590
vn 0.0999 -0.5021 -0.8590
vn 0.0999 0.5021 -0.8590
vn 0.6638 0.6638 0.3445
vn 0.1287 0.6468 -0.7517
vn 0.1287 -0.6468 -0.7517
vn -0.1287 -0.6468 -0.7517
vn -0.1287 0.6468 -0.7517
vn 0.6668 0.6668 0.3328
vn 0.4819 -0.4819 -0.7318
vn 0.6468 -0.1287 -0.7517
vn -0.6468 0.1287 -0.7517
vn 0.6468 0.1287 -0.7517
vn -0.6468 -0.1287 -0.7517
vn -0.7067 -0.7067 0.0350
vn 0.7067 0.7067 0.0350
vn 0.1827 0.9184 0.3509
vn 0.1827 -0.9184 0.3509
vn -0.1827 -0.9184 0.3509
vn -0.1827 0.9184 0.3509
vn -0.7049 -0.7049 0.0789
vn 0.6668 -0.6668 0.3328
vn 0.9184 -0.1827 0.3509
vn -0.9184 0.1827 0.3509
vn 0.9184 0.1827 0.3509
vn -0.9184 -0.1827 0.3509
vn -0.6668 0.6668 0.3328
vn 0.7049 0.7049 0.0789
vn 0.1944 0.9773 0.0837
vn 0.1944 -0.9773 0.0837
vn -0.1944 -0.9773 0.0837
vn -0.1944 0.9773 0.0837
vn -0.3780 -0.3780 -0.8451
vn 0.7049 -0.7049 0.0789
vn 0.9773 -0.1944 0.0837
vn -0.9773 0.1944 0.0837
vn 0.9773 0.1944 0.0837
vn -0.9773 -0.1944 0.0837
vn -0.7049 0.7049 0.0789
vn -0.6638 0.6638 0.3445
vn -0.3780 0.3780 -0.8451
vn -0.9139 -0.1818 0.3630
vn 0.9139 0.1818 0.3630
vn -0.9139 0.1818 0.3630
vn 0.9139 -0.1818 0.3630
vn 0.6638 -0.6638 0.3445
vn -0.6668 -0.6668 0.3328
vn -0.1818 0.9139 0.3630
vn -0.1818 -0.9139 0.3630
vn 0.1818 -0.9139 0.3630
vn 0.1818 0.9139 0.3630
vn -0.7067 0.7067 0.0350
vn -0.4819 0.4819 -0.7318
vn -0.9801 -0.1950 0.0372
vn 0.9801 0.1950 0.0372
vn -0.9801 0.1950 0.0372
vn 0.9801 -0.1950 0.0372
vn 0.7067 -0.7067 0.0350
vn -0.0295 -0.0295 0.9991
vn -0.1950 0.9801 0.0372
vn -0.1950 -0.9801 0.0372
vn 0.1950 -0.9801 0.0372
vn 0.1950 0.9801 0.0372
vn -0.0076 -0.0384 0.9992
vn 0.0078 0.0393 0.9992
vn 0.0295 -0.0295 0.9991
vn 0.0389 0.0077 0.9992
vn 0.0388 -0.0077 0.9992
vn -0.0000 -0.0000 -1.0000
vn 0.0076 -0.0384 0.9992
vn -0.0078 0.0393 0.9992
vn 0.0300 0.0300 0.9991
vn -0.0389 0.0077 0.9992
vn -0.0388 -0.0077 0.9992
vn -0.0300 0.0300 0.9991
vn 0.3780 0.3780 -0.8451
vn 0.6304 0.6304 -0.4530
vn -0.6304 0.6304 -0.4530
vn -0.6304 -0.6304 -0.4530
vn 0.1717 0.8632 -0.4748
vn 0.1717 -0.8632 -0.4748
vn -0.1717 -0.8632 -0.4748
vn -0.1717 0.8632 -0.4748
vn 0.6304 -0.6304 -0.4530
vn 0.8632 -0.1717 -0.4748
vn -0.8632 0.1717 -0.4748
vn 0.8632 0.1717 -0.4748
vn -0.8632 -0.1717 -0.4748
vt 0.000000 0.000000
s 0
f 2/1/1 3/1/1 63/1/1 72/1/1
f 63/1/2 26/1/2 36/1/2 72/1/2
f 87/1/3 89/1/3 16/1/3 15/1/3
f 88/1/4 90/1/4 22/1/4 21/1/4
f 89/1/5 91/1/5 17/1/5 16/1/5
f 90/1/6 92/1/6 23/1/6 22/1/6
f 94/1/7 24/1/7 23/1/7 92/1/7
f 61/1/8 64/1/8 27/1/8 25/1/8
f 93/1/9 95/1/9 19/1/9 18/1/9
f 98/1/10 96/1/10 14/1/10 13/1/10
f 94/1/11 98/1/11 13/1/11 24/1/11
f 95/1/12 97/1/12 20/1/12 19/1/12
f 8/1/13 9/1/13 64/1/13 61/1/13
f 71/1/14 61/1/14 25/1/14 34/1/14
f 70/1/15 62/1/15 35/1/15 33/1/15
f 62/1/16 72/1/16 36/1/16 35/1/16
f 69/1/17 71/1/17 34/1/17 32/1/17
f 73/1/18 76/1/18 38/1/18 47/1/18
f 68/1/19 70/1/19 33/1/19 31/1/19
f 66/1/20 68/1/20 31/1/20 29/1/20
f 65/1/21 67/1/21 30/1/21 28/1/21
f 64/1/22 66/1/22 29/1/22 27/1/22
f 63/1/23 65/1/23 28/1/23 26/1/23
f 36/1/24 26/1/24 75/1/24 84/1/24
f 27/1/25 76/1/25 73/1/25 25/1/25
f 83/1/26 73/1/26 47/1/26 45/1/26
f 82/1/27 74/1/27 48/1/27 44/1/27
f 74/1/28 84/1/28 46/1/28 48/1/28
f 81/1/29 83/1/29 45/1/29 43/1/29
f 46/1/30 37/1/30 49/1/30 58/1/30
f 80/1/31 82/1/31 44/1/31 42/1/31
f 78/1/32 80/1/32 42/1/32 40/1/32
f 77/1/33 79/1/33 41/1/33 39/1/33
f 76/1/34 78/1/34 40/1/34 38/1/34
f 75/1/35 77/1/35 39/1/35 37/1/35
f 79/1/36 81/1/36 43/1/36 41/1/36
f 47/1/37 38/1/37 50/1/37 59/1/37
f 45/1/38 47/1/38 59/1/38 57/1/38
f 44/1/39 48/1/39 60/1/39 56/1/39
f 48/1/40 46/1/40 58/1/40 60/1/40
f 43/1/41 45/1/41 57/1/41 55/1/41
f 96/1/42 87/1/42 15/1/42 14/1/42
f 42/1/43 44/1/43 56/1/43 54/1/43
f 40/1/44 42/1/44 54/1/44 52/1/44
f 39/1/45 41/1/45 53/1/45 51/1/45
f 38/1/46 40/1/46 52/1/46 50/1/46
f 37/1/47 39/1/47 51/1/47 49/1/47
f 41/1/48 43/1/48 55/1/48 53/1/48
f 5/1/49 6/1/49 69/1/49 67/1/49
f 93/1/50 18/1/50 17/1/50 91/1/50
f 3/1/51 4/1/51 65/1/51 63/1/51
f 9/1/52 10/1/52 66/1/52 64/1/52
f 4/1/53 5/1/53 67/1/53 65/1/53
f 10/1/54 11/1/54 68/1/54 66/1/54
f 11/1/55 12/1/55 70/1/55 68/1/55
f 75/1/56 37/1/56 46/1/56 84/1/56
f 6/1/57 7/1/57 71/1/57 69/1/57
f 1/1/58 2/1/58 72/1/58 62/1/58
f 12/1/59 1/1/59 62/1/59 70/1/59
f 7/1/60 8/1/60 61/1/60 71/1/60
f 32/1/61 81/1/61 79/1/61 30/1/61
f 67/1/62 69/1/62 32/1/62 30/1/62
f 26/1/63 28/1/63 77/1/63 75/1/63
f 27/1/64 29/1/64 78/1/64 76/1/64
f 28/1/65 30/1/65 79/1/65 77/1/65
f 29/1/66 31/1/66 80/1/66 78/1/66
f 33/1/67 82/1/67 80/1/67 31/1/67
f 8/1/68 85/1/68 9/1/68
f 32/1/69 34/1/69 83/1/69 81/1/69
f 35/1/70 36/1/70 84/1/70 74/1/70
f 33/1/71 35/1/71 74/1/71 82/1/71
f 34/1/72 25/1/72 73/1/72 83/1/72
f 85/1/73 8/1/73 7/1/73
f 1/1/74 85/1/74 2/1/74
f 85/1/75 6/1/75 5/1/75
f 3/1/76 85/1/76 4/1/76
f 4/1/77 85/1/77 5/1/77
f 20/1/78 21/1/78 86/1/78
f 6/1/79 85/1/79 7/1/79
f 85/1/80 1/1/80 12/1/80
f 85/1/81 3/1/81 2/1/81
f 85/1/82 11/1/82 10/1/82
f 85/1/83 10/1/83 9/1/83
f 11/1/84 85/1/84 12/1/84
f 13/1/78 14/1/78 86/1/78
f 17/1/78 18/1/78 86/1/78
f 15/1/78 16/1/78 86/1/78
f 16/1/78 17/1/78 86/1/78
f 18/1/78 19/1/78 86/1/78
f 19/1/78 20/1/78 86/1/78
f 23/1/78 24/1/78 86/1/78
f 21/1/78 22/1/78 86/1/78
f 22/1/78 23/1/78 86/1/78
f 14/1/78 15/1/78 86/1/78
f 24/1/78 13/1/78 86/1/78
f 88/1/85 21/1/85 20/1/85 97/1/85
f 50/1/86 88/1/86 97/1/86 59/1/86
f 55/1/87 93/1/87 91/1/87 53/1/87
f 58/1/88 49/1/88 87/1/88 96/1/88
f 57/1/89 59/1/89 97/1/89 95/1/89
f 56/1/90 60/1/90 98/1/90 94/1/90
f 60/1/91 58/1/91 96/1/91 98/1/91
f 55/1/92 57/1/92 95/1/92 93/1/92
f 56/1/93 94/1/93 92/1/93 54/1/93
f 52/1/94 54/1/94 92/1/94 90/1/94
f 51/1/95 53/1/95 91/1/95 89/1/95
f 50/1/96 52/1/96 90/1/96 88/1/96
f 49/1/97 51/1/97 89/1/97 87/1/97
