# Blender 4.5.3 LTS
# www.blender.org
o BotTPipe
v -0.126137 0.116104 0.002055
v -0.126137 0.116104 0.049890
v -0.126137 0.116104 0.090443
v -0.126137 0.049890 0.117540
v -0.126137 0.002055 0.127055
v -0.126137 -0.045781 0.117540
v -0.126137 -0.086333 0.090443
v -0.126137 -0.113430 0.049890
v -0.126137 -0.122945 0.002055
v -0.126137 -0.113430 -0.045781
v -0.126137 -0.086333 -0.086333
v -0.126137 -0.045781 -0.113430
v -0.126137 0.002055 -0.122945
v -0.126137 0.049890 -0.113430
v -0.126137 0.116104 -0.086333
v -0.126137 0.116104 -0.045781
v 0.123863 0.116104 0.002055
v 0.123863 0.116104 0.049890
v 0.123863 0.116104 0.090443
v 0.123863 0.049890 0.117540
v 0.123863 0.002055 0.127055
v 0.123863 -0.045781 0.117540
v 0.123863 -0.086333 0.090443
v 0.123863 -0.113430 0.049890
v 0.123863 -0.122945 0.002055
v 0.123863 -0.113430 -0.045781
v 0.123863 -0.086334 -0.086333
v 0.123863 -0.045781 -0.113430
v 0.123863 0.002055 -0.122945
v 0.123863 0.049890 -0.113430
v 0.123863 0.116104 -0.086333
v 0.123863 0.116104 -0.045781
v 0.114348 -0.122945 0.049890
v 0.087252 -0.122945 0.090443
v 0.046699 -0.122945 0.117540
v -0.001137 -0.122945 0.127055
v -0.048972 -0.122945 0.117540
v -0.089525 -0.122945 0.090443
v -0.116622 -0.122945 0.049890
v -0.116622 -0.122945 -0.045781
v -0.089525 -0.122945 -0.086333
v -0.048972 -0.122945 -0.113430
v -0.001137 -0.122945 -0.122945
v 0.046699 -0.122945 -0.113430
v 0.087252 -0.122945 -0.086333
v 0.114348 -0.122945 -0.045781
v -0.376137 0.127055 0.002055
v -0.376137 0.117540 -0.045781
v -0.376137 0.090443 -0.086333
v -0.376137 0.049890 -0.113430
v -0.376137 0.002055 -0.122945
v -0.376137 -0.045781 -0.113430
v -0.376137 -0.086333 -0.086333
v -0.376137 -0.113430 -0.045781
v -0.376137 -0.122945 0.002055
v -0.376137 -0.113430 0.049890
v -0.376137 -0.086333 0.090443
v -0.376137 -0.045781 0.117540
v -0.376137 0.002055 0.127055
v -0.376137 0.049890 0.117540
v -0.376137 0.090443 0.090443
v -0.376137 0.117540 0.049890
v 0.373863 0.127055 0.002055
v 0.373863 0.117540 -0.045781
v 0.373863 0.090443 -0.086333
v 0.373863 0.049890 -0.113430
v 0.373863 0.002055 -0.122945
v 0.373863 -0.045781 -0.113430
v 0.373863 -0.086333 -0.086333
v 0.373863 -0.113430 -0.045781
v 0.373863 -0.122945 0.002055
v 0.373863 -0.113430 0.049890
v 0.373863 -0.086333 0.090443
v 0.373863 -0.045781 0.117540
v 0.373863 0.002055 0.127055
v 0.373863 0.049890 0.117540
v 0.373863 0.090443 0.090443
v 0.373863 0.117540 0.049890
v -0.376137 0.127055 0.002055
v -0.376137 0.117540 -0.045781
v -0.376137 0.090443 -0.086333
v -0.376137 0.049890 -0.113430
v -0.376137 0.002055 -0.122945
v -0.376137 -0.045781 -0.113430
v -0.376137 -0.086333 -0.086333
v -0.376137 -0.113430 -0.045781
v -0.376137 -0.122945 0.002055
v -0.376137 -0.113430 0.049890
v -0.376137 -0.086333 0.090443
v -0.376137 -0.045781 0.117540
v -0.376137 0.002055 0.127055
v -0.376137 0.049890 0.117540
v -0.376137 0.090443 0.090443
v -0.376137 0.117540 0.049890
v -0.146970 0.116104 0.049890
v -0.355303 0.117540 0.049890
v -0.355303 0.090443 0.090443
v -0.146970 0.116104 0.090443
v -0.355303 0.049890 0.117540
v -0.146970 0.049890 0.117540
v -0.355303 0.002055 0.127055
v -0.146970 0.002055 0.127055
v -0.355303 -0.045781 0.117540
v -0.146970 -0.045781 0.117540
v -0.355303 -0.086333 0.090443
v -0.146970 -0.086333 0.090443
v -0.355303 -0.113430 0.049890
v -0.146970 -0.113430 0.049890
v -0.355303 -0.122945 0.002055
v -0.146970 -0.122945 0.002055
v -0.355303 -0.113430 -0.045781
v -0.146970 -0.113430 -0.045781
v -0.355303 -0.086334 -0.086333
v -0.146970 -0.086333 -0.086333
v -0.355303 -0.045781 -0.113430
v -0.146970 -0.045781 -0.113430
v -0.355303 0.002055 -0.122945
v -0.146970 0.002055 -0.122945
v -0.355303 0.049890 -0.113430
v -0.146970 0.049890 -0.113430
v -0.355303 0.090443 -0.086333
v -0.146970 0.116104 -0.086333
v -0.355303 0.117540 -0.045781
v -0.146970 0.116104 -0.045781
v -0.355303 0.127055 0.002055
v -0.146970 0.116104 0.002055
v 0.144697 0.116104 0.002055
v 0.353030 0.127055 0.002055
v 0.353030 0.117540 -0.045781
v 0.144697 0.116104 -0.045781
v 0.353030 0.090443 -0.086333
v 0.144697 0.116104 -0.086333
v 0.353030 0.049890 -0.113430
v 0.144697 0.049890 -0.113430
v 0.353030 0.002055 -0.122945
v 0.144697 0.002055 -0.122945
v 0.353030 -0.045781 -0.113430
v 0.144697 -0.045781 -0.113430
v 0.353030 -0.086333 -0.086333
v 0.144697 -0.086334 -0.086333
v 0.353030 -0.113430 -0.045781
v 0.144697 -0.113430 -0.045781
v 0.353030 -0.122945 0.002055
v 0.144697 -0.122945 0.002055
v 0.353030 -0.113430 0.049890
v 0.144697 -0.113430 0.049890
v 0.353030 -0.086333 0.090443
v 0.144697 -0.086333 0.090443
v 0.353030 -0.045781 0.117540
v 0.144697 -0.045781 0.117540
v 0.353030 0.002055 0.127055
v 0.144697 0.002055 0.127055
v 0.353030 0.049890 0.117540
v 0.144697 0.049890 0.117540
v 0.353030 0.090443 0.090443
v 0.144697 0.116104 0.090443
v 0.353030 0.117540 0.049890
v 0.144697 0.116104 0.049890
v -0.146970 0.103682 0.044150
v -0.355303 0.103682 0.044150
v -0.355303 0.079837 0.079837
v -0.146970 0.079837 0.079837
v -0.355303 0.044150 0.103682
v -0.146970 0.044150 0.103682
v -0.355303 0.002055 0.112055
v -0.146970 0.002055 0.112055
v -0.355303 -0.040040 0.103682
v -0.146970 -0.040040 0.103682
v -0.355303 -0.075727 0.079837
v -0.146970 -0.075727 0.079837
v -0.355303 -0.099572 0.044150
v -0.146970 -0.099572 0.044150
v -0.355303 -0.107945 0.002055
v -0.146970 -0.107945 0.002055
v -0.355303 -0.099572 -0.040040
v -0.146970 -0.099572 -0.040040
v -0.355303 -0.075727 -0.075727
v -0.146970 -0.075727 -0.075727
v -0.355303 -0.040040 -0.099572
v -0.146970 -0.040040 -0.099572
v -0.355303 0.002055 -0.107945
v -0.146970 0.002055 -0.107945
v -0.355303 0.044150 -0.099572
v -0.146970 0.044150 -0.099572
v -0.355303 0.079837 -0.075727
v -0.146970 0.079837 -0.075727
v -0.355303 0.103682 -0.040040
v -0.146970 0.103682 -0.040040
v -0.355303 0.112055 0.002055
v -0.146970 0.112055 0.002055
v 0.144697 0.112055 0.002055
v 0.353030 0.112055 0.002055
v 0.353030 0.103682 -0.040997
v 0.144697 0.103682 -0.040997
v 0.353030 0.079837 -0.077495
v 0.144697 0.079837 -0.077495
v 0.353030 0.044150 -0.101882
v 0.144697 0.044150 -0.101882
v 0.353030 0.002055 -0.110445
v 0.144697 0.002055 -0.110445
v 0.353030 -0.040040 -0.101882
v 0.144697 -0.040040 -0.101882
v 0.353030 -0.075727 -0.077495
v 0.144697 -0.075727 -0.077495
v 0.353030 -0.099572 -0.040997
v 0.144697 -0.099572 -0.040997
v 0.353030 -0.107945 0.002055
v 0.144697 -0.107945 0.002055
v 0.353030 -0.099572 0.045107
v 0.144697 -0.099572 0.045107
v 0.353030 -0.075727 0.081604
v 0.144697 -0.075727 0.081604
v 0.353030 -0.040040 0.105991
v 0.144697 -0.040040 0.105991
v 0.353030 0.002055 0.114555
v 0.144697 0.002055 0.114555
v 0.353030 0.044150 0.105991
v 0.144697 0.044150 0.105991
v 0.353030 0.079837 0.081604
v 0.144697 0.079837 0.081604
v 0.353030 0.103682 0.045107
v 0.144697 0.103682 0.045107
v -0.113637 0.124932 0.045107
v -0.113637 0.124932 0.002055
v -0.113637 0.124932 0.081604
v -0.126137 0.052089 0.105991
v -0.126137 0.009037 0.114555
v -0.126137 0.052089 -0.101882
v -0.126137 0.009037 -0.110445
v -0.113637 0.124932 -0.077495
v -0.113637 0.124932 -0.040997
v 0.111363 0.124932 0.045107
v 0.111363 0.124932 0.002055
v 0.111363 0.124932 0.081604
v 0.123863 0.052089 0.105991
v 0.123863 0.009037 0.114555
v 0.123863 0.052089 -0.101882
v 0.123863 0.009037 -0.110445
v 0.111363 0.124932 -0.077495
v 0.111363 0.124932 -0.040997
vn 1.0000 -0.0000 -0.0000
vn -0.0000 1.0000 -0.0000
vn -0.0000 0.3787 0.9255
vn -0.0000 0.1951 0.9808
vn -0.0000 -0.1951 0.9808
vn -0.0000 -0.5556 0.8315
vn -0.0000 -0.8315 0.5556
vn -0.0000 -0.9808 0.1951
vn -0.0000 -0.9808 -0.1951
vn -0.0000 -0.8315 -0.5556
vn -0.0000 -0.5556 -0.8315
vn -0.0000 -0.1951 -0.9808
vn -0.0000 0.1951 -0.9808
vn -0.0000 0.3787 -0.9255
vn -1.0000 -0.0000 -0.0000
vn 0.8091 0.1387 -0.5711
vn -0.0000 0.8730 0.4877
vn -0.0000 -0.0000 1.0000
vn -0.1915 -0.1915 0.9626
vn -0.4857 -0.4857 0.7268
vn -0.7002 -0.7002 0.1393
vn -0.6393 -0.6393 0.4272
vn -0.7002 -0.7002 -0.1393
vn 0.7002 -0.7002 -0.1393
vn 0.7002 -0.7002 0.1393
vn 0.6393 -0.6393 0.4272
vn 0.4857 -0.4857 0.7268
vn 0.1915 -0.1915 0.9626
vn -0.6393 -0.6393 -0.4272
vn -0.4857 -0.4857 -0.7268
vn -0.1915 -0.1915 -0.9626
vn 0.1915 -0.1915 -0.9626
vn 0.4857 -0.4857 -0.7268
vn 0.6393 -0.6393 -0.4272
vn -0.0000 -1.0000 -0.0000
vn -0.0000 -0.0000 -1.0000
vn -0.0000 0.8730 -0.4877
vn -0.8091 0.1387 0.5711
vn -0.0000 0.9808 0.1951
vn -0.0000 0.9808 -0.1951
vn -0.0000 0.8315 -0.5556
vn -0.0000 0.5556 -0.8315
vn -0.0000 0.5556 0.8315
vn -0.0000 0.8315 0.5556
vn -0.0000 0.9816 0.1909
vn -0.0000 0.8372 0.5469
vn -0.0000 0.5642 0.8256
vn -0.0000 0.1993 0.9799
vn -0.0000 -0.1993 0.9799
vn -0.0000 -0.5642 0.8256
vn -0.0000 -0.8372 0.5469
vn -0.0000 -0.9816 0.1909
vn -0.0000 -0.9816 -0.1909
vn -0.0000 -0.8372 -0.5469
vn -0.0000 -0.5642 -0.8256
vn -0.0000 -0.1993 -0.9799
vn -0.0000 0.1993 -0.9799
vn -0.0000 0.5642 -0.8256
vn -0.0000 0.8372 -0.5469
vn -0.0000 0.9816 -0.1909
vn -0.0000 0.3175 0.9483
vn -0.0000 0.3175 -0.9483
vn -0.5769 0.8168 -0.0000
vn -0.8091 0.1387 -0.5711
vn 0.5769 0.8168 -0.0000
vn 0.8091 0.1387 0.5711
vt 0.000000 0.000000
s 0
f 59/1/1 58/1/1 90/1/1 91/1/1
f 52/1/1 51/1/1 83/1/1 84/1/1
f 60/1/1 59/1/1 91/1/1 92/1/1
f 53/1/1 52/1/1 84/1/1 85/1/1
f 61/1/1 60/1/1 92/1/1 93/1/1
f 54/1/1 53/1/1 85/1/1 86/1/1
f 62/1/1 61/1/1 93/1/1 94/1/1
f 55/1/1 54/1/1 86/1/1 87/1/1
f 48/1/1 47/1/1 79/1/1 80/1/1
f 47/1/1 62/1/1 94/1/1 79/1/1
f 56/1/1 55/1/1 87/1/1 88/1/1
f 49/1/1 48/1/1 80/1/1 81/1/1
f 57/1/1 56/1/1 88/1/1 89/1/1
f 50/1/1 49/1/1 81/1/1 82/1/1
f 58/1/1 57/1/1 89/1/1 90/1/1
f 51/1/1 50/1/1 82/1/1 83/1/1
f 95/1/2 98/1/2 3/1/2 2/1/2
f 98/1/3 100/1/3 4/1/3 3/1/3
f 100/1/4 102/1/4 5/1/4 4/1/4
f 102/1/5 104/1/5 6/1/5 5/1/5
f 104/1/6 106/1/6 7/1/6 6/1/6
f 106/1/7 108/1/7 8/1/7 7/1/7
f 108/1/8 110/1/8 9/1/8 8/1/8
f 110/1/9 112/1/9 10/1/9 9/1/9
f 112/1/10 114/1/10 11/1/10 10/1/10
f 114/1/11 116/1/11 12/1/11 11/1/11
f 116/1/12 118/1/12 13/1/12 12/1/12
f 118/1/13 120/1/13 14/1/13 13/1/13
f 120/1/14 122/1/14 15/1/14 14/1/14
f 122/1/2 124/1/2 16/1/2 15/1/2
f 124/1/2 126/1/2 1/1/2 16/1/2
f 126/1/2 95/1/2 2/1/2 1/1/2
f 127/1/2 130/1/2 32/1/2 17/1/2
f 130/1/2 132/1/2 31/1/2 32/1/2
f 132/1/14 134/1/14 30/1/14 31/1/14
f 134/1/13 136/1/13 29/1/13 30/1/13
f 136/1/12 138/1/12 28/1/12 29/1/12
f 138/1/11 140/1/11 27/1/11 28/1/11
f 140/1/10 142/1/10 26/1/10 27/1/10
f 142/1/9 144/1/9 25/1/9 26/1/9
f 144/1/8 146/1/8 24/1/8 25/1/8
f 146/1/7 148/1/7 23/1/7 24/1/7
f 148/1/6 150/1/6 22/1/6 23/1/6
f 150/1/5 152/1/5 21/1/5 22/1/5
f 152/1/4 154/1/4 20/1/4 21/1/4
f 154/1/3 156/1/3 19/1/3 20/1/3
f 156/1/2 158/1/2 18/1/2 19/1/2
f 158/1/2 127/1/2 17/1/2 18/1/2
f 30/1/15 29/1/15 238/1/15 237/1/15
f 14/1/16 15/1/16 230/1/16 228/1/16
f 5/1/17 21/1/17 236/1/17 227/1/17
f 21/1/18 5/1/18 36/1/18
f 13/1/1 14/1/1 228/1/1 229/1/1
f 36/1/19 5/1/19 6/1/19 37/1/19
f 37/1/20 6/1/20 7/1/20 38/1/20
f 8/1/21 9/1/21 39/1/21
f 39/1/22 38/1/22 7/1/22 8/1/22
f 40/1/23 9/1/23 10/1/23
f 25/1/24 46/1/24 26/1/24
f 33/1/25 25/1/25 24/1/25
f 34/1/26 33/1/26 24/1/26 23/1/26
f 35/1/27 34/1/27 23/1/27 22/1/27
f 36/1/28 35/1/28 22/1/28 21/1/28
f 40/1/29 10/1/29 11/1/29 41/1/29
f 41/1/30 11/1/30 12/1/30 42/1/30
f 42/1/31 12/1/31 13/1/31 43/1/31
f 44/1/32 43/1/32 29/1/32 28/1/32
f 45/1/33 44/1/33 28/1/33 27/1/33
f 46/1/34 45/1/34 27/1/34 26/1/34
f 46/1/35 25/1/35 33/1/35 34/1/35 35/1/35 36/1/35 37/1/35 38/1/35 39/1/35 9/1/35 40/1/35 41/1/35 42/1/35 43/1/35 44/1/35 45/1/35
f 29/1/36 43/1/36 13/1/36
f 29/1/37 13/1/37 229/1/37 238/1/37
f 21/1/15 20/1/15 235/1/15 236/1/15
f 20/1/38 19/1/38 234/1/38 235/1/38
f 4/1/1 5/1/1 227/1/1 226/1/1
f 64/1/1 63/1/1 78/1/1 77/1/1 76/1/1 75/1/1 74/1/1 73/1/1 72/1/1 71/1/1 70/1/1 69/1/1 68/1/1 67/1/1 66/1/1 65/1/1
f 81/1/15 82/1/15 83/1/15 84/1/15 85/1/15 86/1/15 87/1/15 88/1/15 89/1/15 90/1/15 91/1/15 92/1/15 93/1/15 94/1/15 79/1/15 80/1/15
f 79/1/39 94/1/39 96/1/39 125/1/39
f 120/1/15 118/1/15 182/1/15 184/1/15
f 80/1/40 79/1/40 125/1/40 123/1/40
f 103/1/1 105/1/1 169/1/1 167/1/1
f 81/1/41 80/1/41 123/1/41 121/1/41
f 117/1/1 119/1/1 183/1/1 181/1/1
f 82/1/42 81/1/42 121/1/42 119/1/42
f 108/1/15 106/1/15 170/1/15 172/1/15
f 83/1/13 82/1/13 119/1/13 117/1/13
f 122/1/15 120/1/15 184/1/15 186/1/15
f 84/1/12 83/1/12 117/1/12 115/1/12
f 105/1/1 107/1/1 171/1/1 169/1/1
f 85/1/11 84/1/11 115/1/11 113/1/11
f 119/1/1 121/1/1 185/1/1 183/1/1
f 86/1/10 85/1/10 113/1/10 111/1/10
f 110/1/15 108/1/15 172/1/15 174/1/15
f 87/1/9 86/1/9 111/1/9 109/1/9
f 124/1/15 122/1/15 186/1/15 188/1/15
f 88/1/8 87/1/8 109/1/8 107/1/8
f 107/1/1 109/1/1 173/1/1 171/1/1
f 89/1/7 88/1/7 107/1/7 105/1/7
f 98/1/15 95/1/15 159/1/15 162/1/15
f 90/1/6 89/1/6 105/1/6 103/1/6
f 121/1/1 123/1/1 187/1/1 185/1/1
f 91/1/5 90/1/5 103/1/5 101/1/5
f 112/1/15 110/1/15 174/1/15 176/1/15
f 92/1/4 91/1/4 101/1/4 99/1/4
f 96/1/1 97/1/1 161/1/1 160/1/1
f 93/1/43 92/1/43 99/1/43 97/1/43
f 126/1/15 124/1/15 188/1/15 190/1/15
f 94/1/44 93/1/44 97/1/44 96/1/44
f 109/1/1 111/1/1 175/1/1 173/1/1
f 78/1/39 63/1/39 128/1/39 157/1/39
f 144/1/1 142/1/1 206/1/1 208/1/1
f 77/1/44 78/1/44 157/1/44 155/1/44
f 128/1/15 129/1/15 193/1/15 192/1/15
f 76/1/43 77/1/43 155/1/43 153/1/43
f 158/1/1 156/1/1 220/1/1 222/1/1
f 75/1/4 76/1/4 153/1/4 151/1/4
f 141/1/15 143/1/15 207/1/15 205/1/15
f 74/1/5 75/1/5 151/1/5 149/1/5
f 132/1/1 130/1/1 194/1/1 196/1/1
f 73/1/6 74/1/6 149/1/6 147/1/6
f 155/1/15 157/1/15 221/1/15 219/1/15
f 72/1/7 73/1/7 147/1/7 145/1/7
f 146/1/1 144/1/1 208/1/1 210/1/1
f 71/1/8 72/1/8 145/1/8 143/1/8
f 129/1/15 131/1/15 195/1/15 193/1/15
f 70/1/9 71/1/9 143/1/9 141/1/9
f 127/1/1 158/1/1 222/1/1 191/1/1
f 69/1/10 70/1/10 141/1/10 139/1/10
f 143/1/15 145/1/15 209/1/15 207/1/15
f 68/1/11 69/1/11 139/1/11 137/1/11
f 134/1/1 132/1/1 196/1/1 198/1/1
f 67/1/12 68/1/12 137/1/12 135/1/12
f 157/1/15 128/1/15 192/1/15 221/1/15
f 66/1/13 67/1/13 135/1/13 133/1/13
f 148/1/1 146/1/1 210/1/1 212/1/1
f 65/1/42 66/1/42 133/1/42 131/1/42
f 131/1/15 133/1/15 197/1/15 195/1/15
f 64/1/41 65/1/41 131/1/41 129/1/41
f 145/1/15 147/1/15 211/1/15 209/1/15
f 63/1/40 64/1/40 129/1/40 128/1/40
f 136/1/1 134/1/1 198/1/1 200/1/1
f 189/1/39 160/1/39 159/1/39 190/1/39
f 187/1/40 189/1/40 190/1/40 188/1/40
f 185/1/41 187/1/41 188/1/41 186/1/41
f 183/1/42 185/1/42 186/1/42 184/1/42
f 181/1/13 183/1/13 184/1/13 182/1/13
f 179/1/12 181/1/12 182/1/12 180/1/12
f 177/1/11 179/1/11 180/1/11 178/1/11
f 175/1/10 177/1/10 178/1/10 176/1/10
f 173/1/9 175/1/9 176/1/9 174/1/9
f 171/1/8 173/1/8 174/1/8 172/1/8
f 169/1/7 171/1/7 172/1/7 170/1/7
f 167/1/6 169/1/6 170/1/6 168/1/6
f 165/1/5 167/1/5 168/1/5 166/1/5
f 163/1/4 165/1/4 166/1/4 164/1/4
f 161/1/43 163/1/43 164/1/43 162/1/43
f 160/1/44 161/1/44 162/1/44 159/1/44
f 106/1/15 104/1/15 168/1/15 170/1/15
f 115/1/1 117/1/1 181/1/1 179/1/1
f 101/1/1 103/1/1 167/1/1 165/1/1
f 118/1/15 116/1/15 180/1/15 182/1/15
f 104/1/15 102/1/15 166/1/15 168/1/15
f 113/1/1 115/1/1 179/1/1 177/1/1
f 99/1/1 101/1/1 165/1/1 163/1/1
f 116/1/15 114/1/15 178/1/15 180/1/15
f 125/1/1 96/1/1 160/1/1 189/1/1
f 102/1/15 100/1/15 164/1/15 166/1/15
f 111/1/1 113/1/1 177/1/1 175/1/1
f 95/1/15 126/1/15 190/1/15 159/1/15
f 97/1/1 99/1/1 163/1/1 161/1/1
f 114/1/15 112/1/15 176/1/15 178/1/15
f 123/1/1 125/1/1 189/1/1 187/1/1
f 100/1/15 98/1/15 162/1/15 164/1/15
f 221/1/45 192/1/45 191/1/45 222/1/45
f 219/1/46 221/1/46 222/1/46 220/1/46
f 217/1/47 219/1/47 220/1/47 218/1/47
f 215/1/48 217/1/48 218/1/48 216/1/48
f 213/1/49 215/1/49 216/1/49 214/1/49
f 211/1/50 213/1/50 214/1/50 212/1/50
f 209/1/51 211/1/51 212/1/51 210/1/51
f 207/1/52 209/1/52 210/1/52 208/1/52
f 205/1/53 207/1/53 208/1/53 206/1/53
f 203/1/54 205/1/54 206/1/54 204/1/54
f 201/1/55 203/1/55 204/1/55 202/1/55
f 199/1/56 201/1/56 202/1/56 200/1/56
f 197/1/57 199/1/57 200/1/57 198/1/57
f 195/1/58 197/1/58 198/1/58 196/1/58
f 193/1/59 195/1/59 196/1/59 194/1/59
f 192/1/60 193/1/60 194/1/60 191/1/60
f 153/1/15 155/1/15 219/1/15 217/1/15
f 130/1/1 127/1/1 191/1/1 194/1/1
f 139/1/15 141/1/15 205/1/15 203/1/15
f 156/1/1 154/1/1 218/1/1 220/1/1
f 142/1/1 140/1/1 204/1/1 206/1/1
f 151/1/15 153/1/15 217/1/15 215/1/15
f 137/1/15 139/1/15 203/1/15 201/1/15
f 154/1/1 152/1/1 216/1/1 218/1/1
f 140/1/1 138/1/1 202/1/1 204/1/1
f 149/1/15 151/1/15 215/1/15 213/1/15
f 135/1/15 137/1/15 201/1/15 199/1/15
f 152/1/1 150/1/1 214/1/1 216/1/1
f 138/1/1 136/1/1 200/1/1 202/1/1
f 147/1/15 149/1/15 213/1/15 211/1/15
f 133/1/15 135/1/15 199/1/15 197/1/15
f 150/1/1 148/1/1 212/1/1 214/1/1
f 224/1/2 223/1/2 232/1/2 233/1/2
f 232/1/2 223/1/2 225/1/2 234/1/2
f 234/1/61 225/1/61 226/1/61 235/1/61
f 236/1/4 235/1/4 226/1/4 227/1/4
f 238/1/13 229/1/13 228/1/13 237/1/13
f 237/1/62 228/1/62 230/1/62 239/1/62
f 239/1/2 230/1/2 231/1/2 240/1/2
f 240/1/2 231/1/2 224/1/2 233/1/2
f 15/1/63 16/1/63 231/1/63 230/1/63
f 31/1/64 30/1/64 237/1/64 239/1/64
f 1/1/63 2/1/63 223/1/63 224/1/63
f 16/1/63 1/1/63 224/1/63 231/1/63
f 32/1/65 31/1/65 239/1/65 240/1/65
f 2/1/63 3/1/63 225/1/63 223/1/63
f 18/1/65 17/1/65 233/1/65 232/1/65
f 17/1/65 32/1/65 240/1/65 233/1/65
f 3/1/66 4/1/66 226/1/66 225/1/66
f 19/1/65 18/1/65 232/1/65 234/1/65
