# Blender 4.5.3 LTS
# www.blender.org
o DVDPlayer
v 0.318750 0.106250 -0.375000
v 0.318750 0.125000 -0.318750
v 0.375000 0.106250 -0.318750
v 0.318750 -0.125000 -0.318750
v 0.318750 -0.106250 -0.375000
v 0.375000 -0.106250 -0.318750
v 0.375000 0.106250 0.268750
v 0.318750 0.125000 0.268750
v 0.292210 -0.008279 0.362500
v 0.375000 -0.106250 0.268750
v 0.292210 -0.041721 0.362500
v 0.318750 -0.125000 0.268750
v -0.318750 0.106250 -0.375000
v -0.375000 0.106250 -0.318750
v -0.318750 0.125000 -0.318750
v -0.375000 -0.106250 -0.318750
v -0.318750 -0.106250 -0.375000
v -0.318750 -0.125000 -0.318750
v -0.375000 0.106250 0.268750
v -0.292210 -0.008279 0.362500
v -0.318750 0.125000 0.268750
v -0.318750 -0.125000 0.268750
v -0.292210 -0.041721 0.362500
v -0.375000 -0.106250 0.268750
v -0.318750 -0.106250 0.362500
v -0.318750 0.106250 0.362500
v 0.318750 0.106250 0.362500
v 0.318750 -0.106250 0.362500
v -0.292210 -0.041721 0.350000
v -0.292210 -0.008279 0.350000
v 0.292210 -0.008279 0.350000
v 0.292210 -0.041721 0.350000
v -0.250000 0.047020 0.375000
v -0.225000 0.047020 0.362500
v -0.232322 0.064697 0.362500
v -0.250000 0.072020 0.362500
v -0.267678 0.064697 0.362500
v -0.275000 0.047020 0.362500
v -0.267678 0.029342 0.362500
v -0.250000 0.022020 0.362500
v -0.232322 0.029342 0.362500
v -0.187500 0.047020 0.370625
v -0.170000 0.047020 0.361875
v -0.175126 0.059394 0.361875
v -0.187500 0.064520 0.361875
v -0.199874 0.059394 0.361875
v -0.205000 0.047020 0.361875
v -0.199874 0.034645 0.361875
v -0.187500 0.029520 0.361875
v -0.175126 0.034645 0.361875
v 0.262500 0.047020 0.375000
v 0.237500 0.047020 0.362500
v 0.244823 0.029342 0.362500
v 0.262500 0.022020 0.362500
v 0.280178 0.029342 0.362500
v 0.287500 0.047020 0.362500
v 0.280178 0.064697 0.362500
v 0.262500 0.072020 0.362500
v 0.244823 0.064697 0.362500
v 0.200000 0.047020 0.370625
v 0.182500 0.047020 0.361875
v 0.187626 0.034645 0.361875
v 0.200000 0.029520 0.361875
v 0.212375 0.034645 0.361875
v 0.217500 0.047020 0.361875
v 0.212375 0.059394 0.361875
v 0.200000 0.064520 0.361875
v 0.187626 0.059394 0.361875
v -0.125000 0.025000 0.362500
v -0.125000 0.042500 0.362500
v 0.125000 0.025000 0.362500
v 0.125000 0.042500 0.362500
v -0.125000 0.025000 0.367500
v -0.125000 0.027500 0.375000
v -0.125000 0.040000 0.375000
v -0.125000 0.042500 0.367500
v 0.125000 0.027500 0.375000
v 0.125000 0.025000 0.367500
v 0.125000 0.042500 0.367500
v 0.125000 0.040000 0.375000
v -0.250000 0.022020 0.367500
v -0.250000 0.026756 0.375000
v -0.264308 0.032712 0.375000
v -0.267678 0.029342 0.367500
v -0.270126 0.047020 0.375000
v -0.275000 0.047020 0.367500
v -0.264308 0.061328 0.375000
v -0.267678 0.064697 0.367500
v -0.250000 0.067284 0.375000
v -0.250000 0.072020 0.367500
v -0.235692 0.061328 0.375000
v -0.232322 0.064697 0.367500
v -0.229874 0.047020 0.375000
v -0.225000 0.047020 0.367500
v -0.235692 0.032712 0.375000
v -0.232322 0.029342 0.367500
v -0.187500 0.029520 0.363125
v -0.187500 0.034256 0.370625
v -0.196504 0.038015 0.370625
v -0.199874 0.034645 0.363125
v -0.200126 0.047020 0.370625
v -0.205000 0.047020 0.363125
v -0.196504 0.056024 0.370625
v -0.199874 0.059394 0.363125
v -0.187500 0.059784 0.370625
v -0.187500 0.064520 0.363125
v -0.178496 0.056024 0.370625
v -0.175126 0.059394 0.363125
v -0.174874 0.047020 0.370625
v -0.170000 0.047020 0.363125
v -0.178496 0.038015 0.370625
v -0.175126 0.034645 0.363125
v 0.262500 0.072020 0.367500
v 0.262500 0.067284 0.375000
v 0.276808 0.061328 0.375000
v 0.280178 0.064697 0.367500
v 0.282627 0.047020 0.375000
v 0.287500 0.047020 0.367500
v 0.276808 0.032712 0.375000
v 0.280178 0.029342 0.367500
v 0.262500 0.026756 0.375000
v 0.262500 0.022020 0.367500
v 0.248192 0.032712 0.375000
v 0.244823 0.029342 0.367500
v 0.242374 0.047020 0.375000
v 0.237500 0.047020 0.367500
v 0.248192 0.061328 0.375000
v 0.244823 0.064697 0.367500
v 0.200000 0.064520 0.363125
v 0.200000 0.059784 0.370625
v 0.209005 0.056024 0.370625
v 0.212375 0.059394 0.363125
v 0.212627 0.047020 0.370625
v 0.217500 0.047020 0.363125
v 0.209005 0.038015 0.370625
v 0.212375 0.034645 0.363125
v 0.200000 0.034256 0.370625
v 0.200000 0.029520 0.363125
v 0.190996 0.038015 0.370625
v 0.187626 0.034645 0.363125
v 0.187374 0.047020 0.370625
v 0.182500 0.047020 0.363125
v 0.190996 0.056024 0.370625
v 0.187626 0.059394 0.363125
vn 0.3015 0.9045 -0.3015
vn 0.3015 -0.9045 -0.3015
vn 0.3107 0.9321 0.1864
vn 0.3107 -0.9321 0.1864
vn -0.3015 0.9045 -0.3015
vn -0.3015 -0.9045 -0.3015
vn -0.3107 0.9321 0.1864
vn -0.3107 -0.9321 0.1864
vn -0.3162 -0.9487 -0.0000
vn -0.0000 -0.9487 -0.3162
vn 0.7071 -0.0000 -0.7071
vn -0.8575 -0.0000 0.5145
vn 0.8575 -0.0000 0.5145
vn -0.7071 -0.0000 -0.7071
vn -0.0000 0.9806 0.1961
vn 0.3162 0.9487 -0.0000
vn -0.0000 -0.9806 0.1961
vn -0.3162 0.9487 -0.0000
vn -0.0000 0.9487 -0.3162
vn 0.3162 -0.9487 -0.0000
vn -0.0000 -0.0000 -1.0000
vn 1.0000 -0.0000 -0.0000
vn -0.0000 1.0000 -0.0000
vn -0.0000 -1.0000 -0.0000
vn -1.0000 -0.0000 -0.0000
vn -0.0000 -0.0000 1.0000
vn -0.0000 -0.9487 0.3162
vn -0.0000 0.9487 0.3162
vn -0.3309 -0.7971 0.5051
vn -0.7954 -0.3268 0.5105
vn -0.7954 0.3268 0.5105
vn -0.3309 0.7971 0.5051
vn 0.3309 0.7971 0.5051
vn 0.7954 0.3268 0.5105
vn 0.7954 -0.3268 0.5105
vn 0.3309 -0.7971 0.5051
vn -0.3312 -0.7970 0.5051
vn -0.7958 -0.3256 0.5105
vn -0.7958 0.3256 0.5105
vn -0.3312 0.7970 0.5051
vn 0.3312 0.7970 0.5051
vn 0.7958 0.3256 0.5105
vn 0.7958 -0.3256 0.5105
vn 0.3312 -0.7970 0.5051
vn -0.3827 -0.9239 -0.0000
vn 0.3827 -0.9239 -0.0000
vn -0.9239 -0.3827 -0.0000
vn -0.9239 0.3827 -0.0000
vn -0.3827 0.9239 -0.0000
vn 0.3827 0.9239 -0.0000
vn 0.9239 0.3827 -0.0000
vn 0.9239 -0.3827 -0.0000
vt 0.606250 0.481250
vt 0.641787 0.514824
vt 0.606250 0.518649
vt 0.356250 0.518750
vt 0.389824 0.483213
vt 0.393649 0.518750
vt 0.606250 0.731351
vt 0.641787 0.735176
vt 0.606250 0.768750
vt 0.393649 0.731250
vt 0.389824 0.766787
vt 0.356250 0.731250
vt 0.606250 0.268649
vt 0.606250 0.231250
vt 0.625000 0.249507
vt 0.125000 0.518750
vt 0.143750 0.500000
vt 0.143750 0.518750
vt 0.606250 0.018750
vt 0.606250 0.000000
vt 0.625000 0.018750
vt 0.143750 0.731250
vt 0.143750 0.750000
vt 0.125000 0.731250
vt 0.393750 0.000000
vt 0.393750 0.018750
vt 0.393750 0.268750
vt 0.393750 0.231250
vt 0.625000 0.981250
vt 0.606250 0.981250
vt 0.856250 0.518750
vt 0.856250 0.731250
vt 0.402464 0.972337
vt 0.398967 0.775782
vt 0.597373 0.972388
vt 0.393750 0.981250
vt 0.597270 0.777530
vt 0.125000 0.600001
vt 0.375000 0.600001
vt 0.403214 0.750000
vt 0.125000 0.750000
vt 0.625000 0.688356
vt 0.625000 1.000000
vt 0.589286 1.000000
vt 0.589286 0.750000
vt 0.125000 0.500000
vt 0.375000 0.500000
vt 0.375000 0.149999
vt 0.410714 0.000000
vt 0.589286 0.000000
vt 0.625000 0.149999
vt 0.625000 0.250000
vt 0.375000 0.250000
vt 0.410714 1.000000
vt 0.625000 0.500000
vt 0.875000 0.500000
vt 0.875000 0.600001
vt 0.000000 0.000000
s 0
f 1/1/1 2/2/1 3/3/1
f 4/4/2 5/5/2 6/6/2
f 7/7/3 8/8/3 27/9/3
f 10/10/4 28/11/4 12/12/4
f 13/13/5 14/14/5 15/15/5
f 16/16/6 17/17/6 18/18/6
f 19/19/7 26/20/7 21/21/7
f 22/22/8 25/23/8 24/24/8
f 18/18/9 22/22/9 24/24/9 16/16/9
f 4/4/10 18/18/10 17/17/10 5/5/10
f 3/3/11 6/6/11 5/5/11 1/1/11
f 25/25/12 26/20/12 19/19/12 24/26/12
f 27/9/13 28/11/13 10/10/13 7/7/13
f 13/13/14 17/27/14 16/28/14 14/14/14
f 8/8/15 21/29/15 26/30/15 27/9/15
f 2/2/16 8/8/16 7/7/16 3/3/16
f 22/22/17 12/12/17 28/11/17 25/23/17
f 21/21/18 15/15/18 14/14/18 19/19/18
f 15/15/19 2/2/19 1/1/19 13/13/19
f 12/12/20 4/4/20 6/6/20 10/10/20
f 17/27/21 13/13/21 1/1/21 5/5/21
f 6/6/22 3/3/22 7/7/22 10/10/22
f 2/2/23 15/31/23 21/32/23 8/8/23
f 18/18/24 4/4/24 12/12/24 22/22/24
f 23/33/23 11/34/23 32/34/23 29/33/23
f 24/26/25 19/19/25 14/14/25 16/28/25
f 23/33/26 20/35/26 26/30/26 25/36/26
f 9/37/26 11/34/26 28/11/26 27/9/26
f 20/35/26 9/37/26 27/9/26 26/30/26
f 11/34/26 23/33/26 25/36/26 28/11/26
f 32/34/26 31/37/26 30/35/26 29/33/26
f 11/34/25 9/37/25 31/37/25 32/34/25
f 9/37/24 20/35/24 30/35/24 31/37/24
f 20/35/22 23/33/22 29/33/22 30/35/22
f 73/38/27 78/39/27 77/40/27 74/41/27
f 79/42/28 76/43/28 75/44/28 80/45/28
f 69/46/24 71/47/24 78/39/24 73/38/24
f 73/48/25 74/49/25 75/50/25 76/51/25 70/52/25 69/53/25
f 77/40/26 80/45/26 75/44/26 74/54/26
f 72/55/23 70/56/23 76/57/23 79/42/23
f 71/47/22 72/55/22 79/42/22 80/45/22 77/40/22 78/39/22
f 84/58/29 81/58/29 82/58/29 83/58/29
f 86/58/30 84/58/30 83/58/30 85/58/30
f 88/58/31 86/58/31 85/58/31 87/58/31
f 90/58/32 88/58/32 87/58/32 89/58/32
f 92/58/33 90/58/33 89/58/33 91/58/33
f 94/58/34 92/58/34 91/58/34 93/58/34
f 96/58/35 94/58/35 93/58/35 95/58/35
f 81/58/36 96/58/36 95/58/36 82/58/36
f 100/58/37 97/58/37 98/58/37 99/58/37
f 102/58/38 100/58/38 99/58/38 101/58/38
f 104/58/39 102/58/39 101/58/39 103/58/39
f 106/58/40 104/58/40 103/58/40 105/58/40
f 108/58/41 106/58/41 105/58/41 107/58/41
f 110/58/42 108/58/42 107/58/42 109/58/42
f 112/58/43 110/58/43 109/58/43 111/58/43
f 97/58/44 112/58/44 111/58/44 98/58/44
f 116/58/33 113/58/33 114/58/33 115/58/33
f 118/58/34 116/58/34 115/58/34 117/58/34
f 120/58/35 118/58/35 117/58/35 119/58/35
f 122/58/36 120/58/36 119/58/36 121/58/36
f 124/58/29 122/58/29 121/58/29 123/58/29
f 126/58/30 124/58/30 123/58/30 125/58/30
f 128/58/31 126/58/31 125/58/31 127/58/31
f 113/58/32 128/58/32 127/58/32 114/58/32
f 132/58/41 129/58/41 130/58/41 131/58/41
f 134/58/42 132/58/42 131/58/42 133/58/42
f 136/58/43 134/58/43 133/58/43 135/58/43
f 138/58/44 136/58/44 135/58/44 137/58/44
f 140/58/37 138/58/37 137/58/37 139/58/37
f 142/58/38 140/58/38 139/58/38 141/58/38
f 144/58/39 142/58/39 141/58/39 143/58/39
f 129/58/40 144/58/40 143/58/40 130/58/40
f 84/58/45 39/58/45 40/58/45 81/58/45
f 82/58/26 95/58/26 33/58/26
f 83/58/26 82/58/26 33/58/26
f 81/58/46 40/58/46 41/58/46 96/58/46
f 86/58/47 38/58/47 39/58/47 84/58/47
f 85/58/26 83/58/26 33/58/26
f 88/58/48 37/58/48 38/58/48 86/58/48
f 87/58/26 85/58/26 33/58/26
f 90/58/49 36/58/49 37/58/49 88/58/49
f 89/58/26 87/58/26 33/58/26
f 92/58/50 35/58/50 36/58/50 90/58/50
f 91/58/26 89/58/26 33/58/26
f 94/58/51 34/58/51 35/58/51 92/58/51
f 93/58/26 91/58/26 33/58/26
f 96/58/52 41/58/52 34/58/52 94/58/52
f 95/58/26 93/58/26 33/58/26
f 100/58/45 48/58/45 49/58/45 97/58/45
f 98/58/26 111/58/26 42/58/26
f 99/58/26 98/58/26 42/58/26
f 97/58/46 49/58/46 50/58/46 112/58/46
f 102/58/47 47/58/47 48/58/47 100/58/47
f 101/58/26 99/58/26 42/58/26
f 104/58/48 46/58/48 47/58/48 102/58/48
f 103/58/26 101/58/26 42/58/26
f 106/58/49 45/58/49 46/58/49 104/58/49
f 105/58/26 103/58/26 42/58/26
f 108/58/50 44/58/50 45/58/50 106/58/50
f 107/58/26 105/58/26 42/58/26
f 110/58/51 43/58/51 44/58/51 108/58/51
f 109/58/26 107/58/26 42/58/26
f 112/58/52 50/58/52 43/58/52 110/58/52
f 111/58/26 109/58/26 42/58/26
f 116/58/50 57/58/50 58/58/50 113/58/50
f 114/58/26 127/58/26 51/58/26
f 115/58/26 114/58/26 51/58/26
f 113/58/49 58/58/49 59/58/49 128/58/49
f 118/58/51 56/58/51 57/58/51 116/58/51
f 117/58/26 115/58/26 51/58/26
f 120/58/52 55/58/52 56/58/52 118/58/52
f 119/58/26 117/58/26 51/58/26
f 122/58/46 54/58/46 55/58/46 120/58/46
f 121/58/26 119/58/26 51/58/26
f 124/58/45 53/58/45 54/58/45 122/58/45
f 123/58/26 121/58/26 51/58/26
f 126/58/47 52/58/47 53/58/47 124/58/47
f 125/58/26 123/58/26 51/58/26
f 128/58/48 59/58/48 52/58/48 126/58/48
f 127/58/26 125/58/26 51/58/26
f 132/58/50 66/58/50 67/58/50 129/58/50
f 130/58/26 143/58/26 60/58/26
f 131/58/26 130/58/26 60/58/26
f 129/58/49 67/58/49 68/58/49 144/58/49
f 134/58/51 65/58/51 66/58/51 132/58/51
f 133/58/26 131/58/26 60/58/26
f 136/58/52 64/58/52 65/58/52 134/58/52
f 135/58/26 133/58/26 60/58/26
f 138/58/46 63/58/46 64/58/46 136/58/46
f 137/58/26 135/58/26 60/58/26
f 140/58/45 62/58/45 63/58/45 138/58/45
f 139/58/26 137/58/26 60/58/26
f 142/58/47 61/58/47 62/58/47 140/58/47
f 141/58/26 139/58/26 60/58/26
f 144/58/48 68/58/48 61/58/48 142/58/48
f 143/58/26 141/58/26 60/58/26
