# Blender 4.5.3 LTS
# www.blender.org
o FunkyAngle
v 0.125000 0.125000 -0.100000
v -0.125000 0.125000 0.000000
v 0.125000 -0.125000 -0.100000
v -0.104167 -0.100000 0.000000
v 0.104167 -0.100000 0.000000
v 0.104167 0.100000 0.000000
v -0.104167 0.100000 0.000000
v -0.350000 0.125000 0.109339
v -0.375000 0.111823 0.125000
v -0.350000 0.125000 -0.111304
v -0.375000 0.111823 -0.125000
v 0.324336 0.125000 0.112500
v 0.350000 0.112192 0.112500
v 0.323027 0.125000 -0.111304
v 0.375000 0.112015 -0.125000
v -0.125000 0.125000 -0.111256
v -0.125000 0.111742 -0.125000
v 0.125000 0.111873 -0.125000
v 0.125000 0.125000 -0.111256
v 0.125000 0.125000 0.107468
v 0.125000 0.111873 0.125000
v -0.125000 0.111742 0.125000
v -0.125000 0.125000 0.109212
v 0.336822 0.125000 0.362500
v 0.375000 0.112268 0.375000
v 0.153768 0.125000 0.362500
v 0.125000 0.112240 0.375000
v -0.104167 0.100000 -0.086213
v -0.104167 0.086693 -0.100000
v 0.104167 0.086719 -0.100000
v 0.104167 0.100000 -0.086213
v 0.104167 0.100000 0.083427
v 0.104167 0.086719 0.100000
v -0.104167 0.086693 0.100000
v -0.104167 0.100000 0.083777
v -0.375000 0.111849 0.000000
v -0.350000 0.125000 0.000000
v 0.350000 0.112119 -0.100000
v 0.324273 0.125000 -0.100000
v 0.153418 0.125000 0.350000
v 0.125000 0.112192 0.350000
v 0.375000 0.112276 0.350000
v 0.336795 0.125000 0.350000
v 0.177145 0.125000 0.327500
v 0.150000 0.112119 0.327500
v 0.350000 0.112268 0.327500
v 0.324303 0.125000 0.327500
v 0.150000 0.112015 0.145250
v 0.175160 0.125000 0.145250
v 0.350000 0.112240 0.145250
v 0.324346 0.125000 0.145250
v -0.350000 -0.125000 0.112500
v -0.375000 -0.111823 0.125000
v -0.350000 -0.125000 -0.112500
v -0.375000 -0.111823 -0.125000
v 0.324336 -0.125000 0.112500
v 0.350000 -0.112192 0.112500
v 0.322707 -0.125000 -0.110984
v 0.375000 -0.112015 -0.125000
v 0.125000 -0.125000 -0.110923
v 0.125000 -0.111873 -0.125000
v -0.125000 -0.111742 -0.125000
v -0.114963 -0.112956 -0.098595
v -0.162500 -0.125000 -0.112500
v -0.162500 -0.125000 0.112500
v -0.114963 -0.112956 0.095374
v -0.125000 -0.111742 0.125000
v 0.125000 -0.125000 0.106357
v 0.125000 -0.111873 0.125000
v 0.336822 -0.125000 0.362500
v 0.375000 -0.112268 0.375000
v 0.125000 -0.112240 0.375000
v 0.154554 -0.125000 0.362500
v 0.104167 -0.100000 -0.085816
v 0.104167 -0.086719 -0.100000
v -0.104167 -0.086693 -0.100000
v -0.104167 -0.100000 -0.085759
v -0.104167 -0.100000 0.082409
v -0.104167 -0.086693 0.100000
v 0.104167 -0.086719 0.100000
v 0.104167 -0.100000 0.082195
v -0.375000 -0.111849 0.000000
v -0.350000 -0.125000 0.000000
v 0.350000 -0.112119 -0.100000
v 0.324273 -0.125000 -0.100000
v -0.162500 -0.125000 0.000000
v -0.114963 -0.112956 0.000000
v 0.125000 -0.112192 0.350000
v 0.154237 -0.125000 0.350000
v 0.336795 -0.125000 0.350000
v 0.375000 -0.112276 0.350000
v 0.324303 -0.125000 0.327500
v 0.350000 -0.112268 0.327500
v 0.150000 -0.112119 0.327500
v 0.178069 -0.125000 0.327500
v 0.350000 -0.112240 0.145250
v 0.324346 -0.125000 0.145250
v 0.150000 -0.112015 0.145250
v 0.176246 -0.125000 0.145250
v 0.144803 0.125000 -0.111261
v 0.150000 0.111887 -0.125000
v 0.172073 0.125000 0.362500
v 0.150000 0.112243 0.375000
v 0.143677 0.125000 -0.100000
v 0.143684 0.125000 0.109221
v 0.188828 0.125000 0.145250
v 0.171756 0.125000 0.350000
v 0.190611 0.125000 0.327500
v 0.144771 -0.125000 -0.110929
v 0.150000 -0.111887 -0.125000
v 0.172781 -0.125000 0.362500
v 0.150000 -0.112243 0.375000
v 0.143684 -0.125000 0.108222
v 0.189806 -0.125000 0.145250
v 0.143677 -0.125000 -0.100000
v 0.172492 -0.125000 0.350000
v 0.191443 -0.125000 0.327500
vn -0.4659 0.8848 -0.0001
vn -0.0003 0.7242 -0.6896
vn 0.4471 0.8945 -0.0002
vn 0.0003 0.7654 0.6436
vn 0.0002 0.7201 -0.6939
vn -0.8619 0.3659 -0.3510
vn 0.8616 0.3906 0.3242
vn -0.0000 0.6999 0.7143
vn -0.4077 0.7462 0.5262
vn 0.3162 0.9487 -0.0000
vn 0.8617 0.3651 -0.3523
vn -0.0000 0.7199 -0.6941
vn -0.8583 0.4058 0.3142
vn 0.0005 0.7768 0.6297
vn -0.4659 0.8848 0.0001
vn 0.3430 0.9128 0.2218
vn -0.4077 0.9131 0.0026
vn 0.3536 0.8877 -0.2948
vn -0.3819 0.8259 -0.4148
vn 0.4447 0.8957 -0.0000
vn -0.4433 0.8964 0.0022
vn 0.4459 0.8951 -0.0007
vn -0.0000 1.0000 -0.0000
vn 0.7682 0.6402 -0.0000
vn -0.7682 0.6402 -0.0000
vn 0.2842 -0.9467 -0.1515
vn 0.2893 -0.9474 0.1368
vn -0.4659 -0.8848 0.0001
vn 0.0001 -0.6871 -0.7265
vn 0.3424 -0.9134 0.2203
vn -0.0003 -0.7314 -0.6819
vn 0.8612 -0.3725 -0.3457
vn 0.0001 -0.6871 0.7265
vn -0.8575 -0.4166 0.3018
vn 0.2456 -0.9694 -0.0000
vn -0.0000 -0.7002 0.7139
vn -0.3984 -0.9172 0.0022
vn 0.4459 -0.8951 -0.0007
vn -0.8620 -0.3704 -0.3461
vn -0.0001 -0.7303 -0.6831
vn 0.8596 -0.4077 0.3081
vn 0.0003 -0.7996 0.6006
vn -0.4659 -0.8848 -0.0001
vn 0.4471 -0.8945 -0.0002
vn -0.3737 -0.8336 -0.4069
vn 0.3162 -0.9487 -0.0000
vn 0.3536 -0.8877 -0.2948
vn -0.4300 -0.9028 0.0019
vn 0.4447 -0.8957 -0.0000
vn -0.3970 -0.7631 0.5100
vn -1.0000 -0.0000 -0.0000
vn -0.0000 -1.0000 -0.0000
vn -0.0000 -0.0000 1.0000
vn -0.0000 -0.0000 -1.0000
vn 1.0000 -0.0000 -0.0000
vn 0.7071 -0.0000 0.7071
vn -0.7682 -0.0000 -0.6402
vn -0.7682 -0.6402 -0.0000
vn 0.7682 -0.6402 -0.0000
vn 0.7682 -0.0000 -0.6402
vn 0.7682 -0.0000 0.6402
vn -0.6294 -0.0000 0.7771
vn -0.7682 -0.0000 0.6402
vn -0.6690 -0.0000 -0.7433
vn 0.6690 -0.0000 -0.7433
vn -0.0000 -0.6999 0.7143
vn -0.0003 -0.7322 -0.6810
vn -0.0000 0.7002 0.7139
vn -0.0003 0.7232 -0.6906
vt 0.625000 0.125000
vt 0.625000 0.246951
vt 0.611823 0.250000
vt 0.611849 0.125000
vt 0.625573 0.424781
vt 0.630728 0.519468
vt 0.612015 0.500000
vt 0.611887 0.425000
vt 0.639158 0.625000
vt 0.639135 0.750000
vt 0.612192 0.750000
vt 0.612119 0.625000
vt 0.625000 0.913953
vt 0.625000 0.987500
vt 0.611823 1.000000
vt 0.611742 0.916667
vt 0.625000 0.335683
vt 0.611742 0.333333
vt 0.625000 0.388889
vt 0.625000 0.414260
vt 0.611873 0.416667
vt 0.608399 0.388889
vt 0.625000 0.888889
vt 0.608366 0.888889
vt 0.625586 0.818683
vt 0.625000 0.825552
vt 0.612240 0.833333
vt 0.612243 0.825000
vt 0.625000 0.833333
vt 0.625000 0.839130
vt 0.611873 0.833333
vt 0.612015 0.833333
vt 0.637735 0.750000
vt 0.630863 0.756863
vt 0.612267 0.750000
vt 0.612276 0.750000
vt 0.625000 0.361111
vt 0.608366 0.361111
vt 0.625000 0.861111
vt 0.608399 0.861111
vt 0.625000 0.015661
vt 0.611823 0.000000
vt 0.625000 0.833333
vt 0.612192 0.833333
vt 0.640915 0.750000
vt 0.625000 0.833333
vt 0.612119 0.833333
vt 0.640898 0.750000
vt 0.612240 0.750000
vt 0.791667 0.625000
vt 0.862500 0.625000
vt 0.862500 0.734339
vt 0.791667 0.734212
vt 0.791667 0.513743
vt 0.862500 0.513696
vt 0.701416 0.625000
vt 0.708333 0.625000
vt 0.707899 0.741035
vt 0.701022 0.741932
vt 0.697850 0.750000
vt 0.692155 0.750000
vt 0.700573 0.563793
vt 0.708333 0.568718
vt 0.763889 0.517234
vt 0.763889 0.625000
vt 0.736111 0.517234
vt 0.736111 0.625000
vt 0.736111 0.729283
vt 0.763889 0.729722
vt 0.692748 0.750000
vt 0.698860 0.750000
vt 0.698744 0.750000
vt 0.691956 0.750686
vt 0.691412 0.750000
vt 0.697023 0.750000
vt 0.210158 0.500000
vt 0.220898 0.515765
vt 0.195833 0.512500
vt 0.195833 0.737500
vt 0.220808 0.730700
vt 0.210289 0.750000
vt 0.137500 0.625000
vt 0.137500 0.737500
vt 0.125000 0.750000
vt 0.125000 0.625000
vt 0.137500 0.512500
vt 0.125000 0.500000
vt 0.360842 0.625000
vt 0.361628 0.570081
vt 0.387279 0.500000
vt 0.387881 0.625000
vt 0.298663 0.570353
vt 0.291667 0.570384
vt 0.289364 0.500000
vt 0.299156 0.500000
vt 0.236111 0.517802
vt 0.236111 0.500000
vt 0.263889 0.727744
vt 0.292243 0.740679
vt 0.287312 0.750000
vt 0.263889 0.750000
vt 0.221716 0.625000
vt 0.195833 0.625000
vt 0.307594 0.750000
vt 0.362274 0.750000
vt 0.387101 0.750000
vt 0.301210 0.750000
vt 0.301412 0.750000
vt 0.301518 0.750000
vt 0.291667 0.750000
vt 0.291667 0.750000
vt 0.359102 0.750000
vt 0.360865 0.750000
vt 0.387808 0.750000
vt 0.387760 0.750000
vt 0.263889 0.517730
vt 0.263889 0.500000
vt 0.236111 0.728011
vt 0.236111 0.750000
vt 0.303362 0.750000
vt 0.291667 0.750000
vt 0.362265 0.750000
vt 0.387723 0.750000
vt 0.359085 0.750000
vt 0.387732 0.750000
vt 0.302603 0.750000
vt 0.388177 0.000000
vt 0.388151 0.125000
vt 0.388258 0.916667
vt 0.388177 1.000000
vt 0.388177 0.250000
vt 0.388258 0.333333
vt 0.299105 0.741611
vt 0.308253 0.750000
vt 0.298584 0.625000
vt 0.388042 0.425000
vt 0.391601 0.388889
vt 0.388127 0.416667
vt 0.291667 0.625000
vt 0.263889 0.625000
vt 0.236111 0.625000
vt 0.391634 0.361111
vt 0.391634 0.888889
vt 0.388127 0.833333
vt 0.387985 0.833333
vt 0.391601 0.861111
vt 0.387694 0.825000
vt 0.387760 0.833333
vt 0.307498 0.750000
vt 0.387808 0.833333
vt 0.308934 0.750000
vt 0.387881 0.833333
s 0
f 37/1/1 10/2/1 11/3/1 36/4/1
f 100/5/2 14/6/2 15/7/2 101/8/2
f 39/9/3 12/10/3 13/11/3 38/12/3
f 23/13/4 8/14/4 9/15/4 22/16/4
f 10/2/5 16/17/5 17/18/5 11/3/5
f 31/19/6 19/20/6 18/21/6 30/22/6
f 35/23/7 23/13/7 22/16/7 34/24/7
f 102/25/8 26/26/8 27/27/8 103/28/8
f 49/29/9 20/30/9 21/31/9 48/32/9
f 43/33/10 24/34/10 25/35/10 42/36/10
f 16/17/11 28/37/11 29/38/11 17/18/11
f 28/37/12 31/19/12 30/22/12 29/38/12
f 20/30/13 32/39/13 33/40/13 21/31/13
f 32/39/14 35/23/14 34/24/14 33/40/14
f 8/41/15 37/1/15 36/4/15 9/42/15
f 14/6/16 39/9/16 38/12/16 15/7/16
f 26/26/17 40/43/17 41/44/17 27/27/17
f 47/45/18 43/33/18 42/36/18 46/35/18
f 40/43/19 44/46/19 45/47/19 41/44/19
f 51/48/20 47/45/20 46/35/20 50/49/20
f 44/46/21 49/29/21 48/32/21 45/47/21
f 12/10/22 51/48/22 50/49/22 13/11/22
f 2/50/23 37/51/23 8/52/23 23/53/23
f 16/54/23 10/55/23 37/51/23 2/50/23
f 104/56/23 1/57/23 20/58/23 105/59/23
f 105/59/23 20/58/23 49/60/23 106/61/23
f 100/62/23 19/63/23 1/57/23 104/56/23
f 28/64/24 16/54/24 2/50/24 7/65/24
f 19/63/25 31/66/25 6/67/25 1/57/25
f 1/57/25 6/67/25 32/68/25 20/58/25
f 7/65/24 2/50/24 23/53/24 35/69/24
f 107/70/23 40/71/23 26/72/23 102/73/23
f 31/66/23 28/64/23 7/65/23 6/67/23
f 6/67/23 7/65/23 35/69/23 32/68/23
f 108/74/23 44/75/23 40/71/23 107/70/23
f 106/61/23 49/60/23 44/75/23 108/74/23
f 62/76/26 63/77/26 64/78/26
f 65/79/27 66/80/27 67/81/27
f 83/82/28 52/83/28 53/84/28 82/85/28
f 64/78/29 54/86/29 55/87/29 62/76/29
f 85/88/30 58/89/30 59/90/30 84/91/30
f 109/92/31 60/93/31 61/94/31 110/95/31
f 77/96/32 63/77/32 62/76/32 76/97/32
f 52/83/33 65/79/33 67/81/33 53/84/33
f 81/98/34 68/99/34 69/100/34 80/101/34
f 87/102/35 66/80/35 65/79/35 86/103/35
f 111/104/36 70/105/36 71/106/36 112/107/36
f 89/108/37 73/109/37 72/110/37 88/111/37
f 97/112/38 56/113/38 57/114/38 96/115/38
f 60/93/39 74/116/39 75/117/39 61/94/39
f 74/116/40 77/96/40 76/97/40 75/117/40
f 66/80/41 78/118/41 79/119/41 67/81/41
f 78/118/42 81/98/42 80/101/42 79/119/42
f 54/86/43 83/82/43 82/85/43 55/87/43
f 56/113/44 85/88/44 84/91/44 57/114/44
f 63/77/35 87/102/35 86/103/35 64/78/35
f 95/120/45 89/108/45 88/111/45 94/121/45
f 70/105/46 90/122/46 91/123/46 71/106/46
f 90/122/47 92/124/47 93/125/47 91/123/47
f 99/126/48 95/120/48 94/121/48 98/111/48
f 92/124/49 97/112/49 96/115/49 93/125/49
f 68/99/50 99/126/50 98/111/50 69/100/50
f 53/127/51 9/42/51 36/4/51 82/128/51
f 83/82/52 86/103/52 65/79/52 52/83/52
f 67/129/53 22/16/53 9/15/53 53/130/53
f 55/131/54 11/3/54 17/18/54 62/132/54
f 54/86/52 64/78/52 86/103/52 83/82/52
f 82/128/51 36/4/51 11/3/51 55/131/51
f 113/133/52 56/113/52 97/112/52 114/134/52
f 84/91/55 38/12/55 13/11/55 57/114/55
f 57/114/55 13/11/55 50/49/55 96/115/55
f 115/135/52 85/88/52 56/113/52 113/133/52
f 59/90/56 15/7/56 38/12/56 84/91/56
f 109/92/52 58/89/52 85/88/52 115/135/52
f 110/136/54 101/8/54 15/7/54 59/90/54
f 75/137/57 30/22/57 18/21/57 61/138/57
f 74/116/58 60/93/58 3/139/58 5/140/58
f 63/77/59 77/96/59 4/141/59 87/102/59
f 62/132/60 17/18/60 29/38/60 76/142/60
f 87/102/59 4/141/59 78/118/59 66/80/59
f 79/143/61 34/24/61 22/16/61 67/129/61
f 5/140/58 3/139/58 68/99/58 81/98/58
f 21/31/62 69/144/62 98/145/62 48/32/62
f 69/144/63 21/31/63 33/40/63 80/146/63
f 112/147/53 103/28/53 27/27/53 72/148/53
f 116/149/52 90/122/52 70/105/52 111/104/52
f 91/123/55 42/36/55 25/35/55 71/106/55
f 41/44/51 88/150/51 72/148/51 27/27/51
f 76/142/54 29/38/54 30/22/54 75/137/54
f 77/96/52 74/116/52 5/140/52 4/141/52
f 80/146/53 33/40/53 34/24/53 79/143/53
f 4/141/52 5/140/52 81/98/52 78/118/52
f 117/151/52 92/124/52 90/122/52 116/149/52
f 45/47/64 94/152/64 88/150/64 41/44/64
f 93/125/65 46/35/65 42/36/65 91/123/65
f 114/134/52 97/112/52 92/124/52 117/151/52
f 96/115/55 50/49/55 46/35/55 93/125/55
f 48/32/51 98/145/51 94/152/51 45/47/51
f 99/126/52 114/134/52 117/151/52 95/120/52
f 95/120/52 117/151/52 116/149/52 89/108/52
f 89/108/52 116/149/52 111/104/52 73/109/52
f 71/106/53 25/35/53 103/28/53 112/147/53
f 61/138/54 18/21/54 101/8/54 110/136/54
f 60/93/52 109/92/52 115/135/52 3/139/52
f 3/139/52 115/135/52 113/133/52 68/99/52
f 68/99/52 113/133/52 114/134/52 99/126/52
f 73/109/66 111/104/66 112/107/66 72/110/66
f 58/89/67 109/92/67 110/95/67 59/90/67
f 51/48/23 106/61/23 108/74/23 47/45/23
f 47/45/23 108/74/23 107/70/23 43/33/23
f 43/33/23 107/70/23 102/73/23 24/34/23
f 14/6/23 100/62/23 104/56/23 39/9/23
f 12/10/23 105/59/23 106/61/23 51/48/23
f 39/9/23 104/56/23 105/59/23 12/10/23
f 24/34/68 102/25/68 103/28/68 25/35/68
f 19/20/69 100/5/69 101/8/69 18/21/69
