# Blender 4.5.3 LTS
# www.blender.org
o BottomHinge
v 0.202500 -0.237500 -0.192275
v 0.190000 -0.250000 -0.200000
v 0.202500 -0.237500 0.192275
v 0.190000 -0.250000 0.200000
v -0.202500 -0.237500 -0.192275
v -0.190000 -0.250000 -0.200000
v -0.202500 -0.237500 0.192275
v -0.190000 -0.250000 0.200000
v 0.202500 -0.138386 -0.212500
v 0.190000 -0.137500 -0.225000
v 0.202500 0.100000 0.000000
v 0.190000 0.112500 0.000000
v 0.202500 -0.063806 -0.201869
v 0.190000 -0.060246 -0.213988
v 0.202500 0.002502 -0.171462
v 0.190000 0.009446 -0.182029
v 0.202500 0.054879 -0.124322
v 0.190000 0.064754 -0.132252
v 0.202500 0.088326 -0.065243
v 0.190000 0.100264 -0.069529
v 0.202500 -0.138386 0.212500
v 0.190000 -0.137500 0.225000
v 0.202500 0.088326 0.065243
v 0.190000 0.100264 0.069529
v 0.202500 0.054879 0.124322
v 0.190000 0.064754 0.132252
v 0.202500 0.002502 0.171462
v 0.190000 0.009446 0.182029
v 0.202500 -0.063806 0.201869
v 0.190000 -0.060246 0.213988
v -0.190000 0.112500 0.000000
v -0.202500 0.100000 0.000000
v -0.202500 -0.138386 -0.212500
v -0.190000 -0.137500 -0.225000
v -0.202500 0.088326 -0.065243
v -0.190000 0.100264 -0.069529
v -0.202500 0.054879 -0.124322
v -0.190000 0.064754 -0.132252
v -0.202500 0.002502 -0.171462
v -0.190000 0.009446 -0.182029
v -0.202500 -0.063806 -0.201869
v -0.190000 -0.060246 -0.213988
v -0.202500 -0.138386 0.212500
v -0.190000 -0.137500 0.225000
v -0.202500 -0.063806 0.201869
v -0.190000 -0.060246 0.213988
v -0.202500 0.002502 0.171462
v -0.190000 0.009446 0.182029
v -0.202500 0.054879 0.124322
v -0.190000 0.064754 0.132252
v -0.202500 0.088326 0.065243
v -0.190000 0.100264 0.069529
v 0.202500 -0.197049 0.212500
v 0.190000 -0.200000 0.225000
v -0.190000 -0.200000 0.225000
v -0.202500 -0.197049 0.212500
v -0.190000 -0.200000 -0.225000
v -0.202500 -0.197049 -0.212500
v 0.190000 -0.200000 -0.225000
v 0.202500 -0.197049 -0.212500
vn -0.7071 -0.7071 -0.0000
vn 0.7071 -0.7071 -0.0000
vn 0.7044 0.6989 0.1240
vn -0.7044 0.6989 0.1240
vn 0.7071 0.6153 0.3484
vn -0.7071 0.6153 0.3484
vn 0.7071 0.4730 0.5256
vn -0.7071 0.4730 0.5256
vn 0.7071 0.2947 0.6427
vn -0.7071 0.2947 0.6427
vn 0.7071 0.0998 0.7000
vn -0.7071 0.0998 0.7000
vn -0.7044 0.6989 -0.1240
vn 0.7044 0.6989 -0.1240
vn -0.7071 0.6153 -0.3484
vn 0.7071 0.6153 -0.3484
vn -0.7071 0.4730 -0.5256
vn 0.7071 0.4730 -0.5256
vn -0.7071 0.2947 -0.6427
vn 0.7071 0.2947 -0.6427
vn -0.7071 0.0998 -0.7000
vn 0.7071 0.0998 -0.7000
vn -0.7071 -0.0000 -0.7071
vn 0.7071 -0.3162 -0.6325
vn 0.7071 -0.3162 0.6325
vn -0.7071 -0.3162 0.6325
vn 0.7071 -0.0000 0.7071
vn -0.7071 -0.0000 0.7071
vn -0.7071 -0.3162 -0.6325
vn 0.7071 -0.0000 -0.7071
vn -0.0000 -0.4472 -0.8944
vn -0.0000 -1.0000 -0.0000
vn 1.0000 -0.0000 -0.0000
vn -0.0000 -0.4472 0.8944
vn -1.0000 -0.0000 -0.0000
vn -0.0000 0.1411 -0.9900
vn -0.0000 -0.0000 -1.0000
vn -0.0000 0.9849 -0.1733
vn -0.0000 0.4168 -0.9090
vn -0.0000 0.6690 -0.7433
vn -0.0000 0.8702 -0.4927
vn -0.0000 0.9849 0.1733
vn -0.0000 0.1411 0.9900
vn -0.0000 -0.0000 1.0000
vn -0.0000 0.8702 0.4927
vn -0.0000 0.6690 0.7433
vn -0.0000 0.4168 0.9090
vt 0.132716 0.500000
vt 0.132716 0.750000
vt 0.125000 0.745172
vt 0.125000 0.504828
vt 0.368227 0.750943
vt 0.368227 0.499057
vt 0.381265 0.506891
vt 0.381265 0.743108
vt 0.614709 0.662282
vt 0.625000 0.625000
vt 0.632716 0.625000
vt 0.628334 0.663627
vt 0.625000 0.125000
vt 0.612931 0.088814
vt 0.618882 0.086373
vt 0.601278 0.705139
vt 0.611697 0.717012
vt 0.596203 0.055971
vt 0.601127 0.051527
vt 0.570518 0.726340
vt 0.573473 0.740617
vt 0.570012 0.029764
vt 0.573473 0.023873
vt 0.536920 0.738987
vt 0.538627 0.753334
vt 0.536856 0.012847
vt 0.538627 0.006118
vt 0.499607 0.743310
vt 0.500000 0.757716
vt 0.499565 0.006894
vt 0.500000 0.000000
vt 0.613198 0.161923
vt 0.618882 0.163627
vt 0.614710 0.587718
vt 0.628334 0.586373
vt 0.632716 0.625000
vt 0.599025 0.200690
vt 0.604787 0.216035
vt 0.601278 0.544861
vt 0.611379 0.532301
vt 0.570277 0.225961
vt 0.573473 0.241161
vt 0.570518 0.523660
vt 0.573473 0.508839
vt 0.536873 0.238997
vt 0.538627 0.253473
vt 0.536920 0.511014
vt 0.538627 0.496527
vt 0.499572 0.243336
vt 0.500000 0.257716
vt 0.499607 0.506690
vt 0.500000 0.492284
vt 0.401480 0.244988
vt 0.400000 0.257716
vt 0.401495 0.505031
vt 0.400000 0.492284
vt 0.400000 0.757716
vt 0.401495 0.744969
vt 0.400907 1.000000
vt 0.378455 1.000000
vt 0.375000 0.992284
vt 0.400000 0.992284
vt 0.499557 1.000000
vt 0.500000 0.992284
vt 0.381254 0.243124
vt 0.375000 0.257716
vt 0.381253 0.006908
vt 0.401480 0.005053
vt 0.867284 0.625000
vt 0.867144 0.586373
vt 0.866739 0.501175
vt 0.867284 0.625000
vt 0.867144 0.663627
vt 0.538627 0.992144
vt 0.866739 0.748825
vt 0.624455 0.991109
vt 0.573473 0.991739
s 0
f 6/1/1 8/2/1 7/3/1 5/4/1
f 4/5/2 2/6/2 1/7/2 3/8/2
f 23/9/3 11/10/3 12/11/3 24/12/3
f 32/13/4 51/14/4 52/15/4 31/13/4
f 25/16/5 23/9/5 24/12/5 26/17/5
f 51/14/6 49/18/6 50/19/6 52/15/6
f 27/20/7 25/16/7 26/17/7 28/21/7
f 49/18/8 47/22/8 48/23/8 50/19/8
f 29/24/9 27/20/9 28/21/9 30/25/9
f 47/22/10 45/26/10 46/27/10 48/23/10
f 21/28/11 29/24/11 30/25/11 22/29/11
f 45/26/12 43/30/12 44/31/12 46/27/12
f 35/32/13 32/13/13 31/13/13 36/33/13
f 11/10/14 19/34/14 20/35/14 12/36/14
f 37/37/15 35/32/15 36/33/15 38/38/15
f 19/34/16 17/39/16 18/40/16 20/35/16
f 39/41/17 37/37/17 38/38/17 40/42/17
f 17/39/18 15/43/18 16/44/18 18/40/18
f 41/45/19 39/41/19 40/42/19 42/46/19
f 15/43/20 13/47/20 14/48/20 16/44/20
f 33/49/21 41/45/21 42/46/21 34/50/21
f 13/47/22 9/51/22 10/52/22 14/48/22
f 58/53/23 33/49/23 34/50/23 57/54/23
f 60/55/24 1/7/24 2/6/24 59/56/24
f 54/57/25 4/5/25 3/8/25 53/58/25
f 56/59/26 7/60/26 8/61/26 55/62/26
f 22/29/27 54/57/27 53/58/27 21/28/27
f 43/63/28 56/59/28 55/62/28 44/64/28
f 5/65/29 58/53/29 57/54/29 6/66/29
f 9/51/30 60/55/30 59/56/30 10/52/30
f 6/66/31 57/54/31 59/56/31 2/6/31
f 6/1/32 2/6/32 4/5/32 8/2/32
f 1/7/33 60/55/33 9/51/33 13/47/33 15/43/33 17/39/33 19/34/33 11/10/33 23/9/33 25/16/33 27/20/33 29/24/33 21/28/33 53/58/33 3/8/33
f 4/5/34 54/57/34 55/62/34 8/61/34
f 7/67/35 56/68/35 43/30/35 45/26/35 47/22/35 49/18/35 51/14/35 32/13/35 35/32/35 37/37/35 39/41/35 41/45/35 33/49/35 58/53/35 5/65/35
f 42/46/36 14/48/36 10/52/36 34/50/36
f 57/54/37 34/50/37 10/52/37 59/56/37
f 31/69/38 12/36/38 20/35/38 36/70/38
f 40/42/39 16/44/39 14/48/39 42/46/39
f 38/38/40 18/40/40 16/44/40 40/42/40
f 36/70/41 20/35/41 18/40/41 38/71/41
f 12/11/42 31/72/42 52/73/42 24/12/42
f 30/25/43 46/74/43 44/64/43 22/29/43
f 54/57/44 22/29/44 44/64/44 55/62/44
f 24/12/45 52/73/45 50/75/45 26/17/45
f 26/17/46 50/76/46 48/77/46 28/21/46
f 28/21/47 48/77/47 46/74/47 30/25/47
